# xmcd
#
# Track frame offsets:
# 150
# 14414
# 24696
# 38043
# 58563
# 75994
# 91609
# 111039
# 128137
# 146095
# 160345
# 176232
# 186089
# 198595
# 211079
# 222633
# 233211
# 257180
# 270632
# 289699
#
# Disc length: 4156 seconds
#
# Revision: 1
# Processed by: cddbd v1.5.2PL0 Copyright (c) Steve Scherf et al.
# Submitted via: CedeCatalogueitor 2.6.0.6 http://personales.ya.com/cdcatalogueitor
#
DISCID=21103a14
DTITLE=Varios - Musica De Cine Cd 3
DYEAR=1900
DGENRE=
TTITLE0=El Violinista En El Tejado
TTITLE1=De Aqui A Ala Eternidad
TTITLE2=Cantando Bajo La Lluvia
TTITLE3=The Loney
TTITLE4=Desayuno Con Diamantes
TTITLE5=Dias De Vino Y Rosas
TTITLE6=Sharf
TTITLE7=Bailando Con Lobos
TTITLE8=E.t.
TTITLE9=El Coloso En Llamas
TTITLE10=La Guerra De Las Galaxias
TTITLE11=La Colina Del Adios
TTITLE12=Captain Carey
TTITLE13=Tal Como Erasmos
TTITLE14=Castillos En La Arena
TTITLE15=Dr. Zhivago
TTITLE16=Leyendas De Pasion
TTITLE17=El Piano
TTITLE18=Oficial Y Caballero
TTITLE19=Norhing Hill
EXTD=
EXTT0=
EXTT1=
EXTT2=
EXTT3=
EXTT4=
EXTT5=
EXTT6=
EXTT7=
EXTT8=
EXTT9=
EXTT10=
EXTT11=
EXTT12=
EXTT13=
EXTT14=
EXTT15=
EXTT16=
EXTT17=
EXTT18=
EXTT19=
PLAYORDER=
